<?xml version="1.0" encoding="UTF-8" standalone="no"?>
<svg
   xmlns:dc="http://purl.org/dc/elements/1.1/"
   xmlns:cc="http://creativecommons.org/ns#"
   xmlns:rdf="http://www.w3.org/1999/02/22-rdf-syntax-ns#"
   xmlns:svg="http://www.w3.org/2000/svg"
   xmlns="http://www.w3.org/2000/svg"
   xmlns:sodipodi="http://sodipodi.sourceforge.net/DTD/sodipodi-0.dtd"
   xmlns:inkscape="http://www.inkscape.org/namespaces/inkscape"
   viewBox="0 0 30 30"
   version="1.1"
   id="svg53"
   sodipodi:docname="glosario.svg"
   inkscape:version="1.0.2 (e86c870879, 2021-01-15)">
  <metadata
     id="metadata57">
    <rdf:RDF>
      <cc:Work
         rdf:about="">
        <dc:format>image/svg+xml</dc:format>
        <dc:type
           rdf:resource="http://purl.org/dc/dcmitype/StillImage" />
      </cc:Work>
    </rdf:RDF>
  </metadata>
  <sodipodi:namedview
     pagecolor="#ffffff"
     bordercolor="#666666"
     borderopacity="1"
     objecttolerance="10"
     gridtolerance="10"
     guidetolerance="10"
     inkscape:pageopacity="0"
     inkscape:pageshadow="2"
     inkscape:window-width="1920"
     inkscape:window-height="1001"
     id="namedview55"
     showgrid="false"
     inkscape:zoom="27.666667"
     inkscape:cx="15"
     inkscape:cy="15"
     inkscape:window-x="-9"
     inkscape:window-y="-9"
     inkscape:window-maximized="1"
     inkscape:current-layer="svg53" />
  <defs
     id="defs29">
    <style
       id="style2">.cls-1{fill:url(#radial-gradient);}.cls-2{fill:url(#radial-gradient-2);}.cls-3{fill:url(#linear-gradient);}.cls-4{fill:url(#linear-gradient-2);}.cls-5{fill:url(#linear-gradient-3);}.cls-6{fill:#0071b7;}</style>
    <radialGradient
       id="radial-gradient"
       cx="15"
       cy="15"
       r="15"
       gradientUnits="userSpaceOnUse">
      <stop
         offset="0.41"
         id="stop4" />
      <stop
         offset="1"
         stop-opacity="0"
         id="stop6" />
    </radialGradient>
    <radialGradient
       id="radial-gradient-2"
       cx="15"
       cy="16.75"
       r="12.5"
       gradientUnits="userSpaceOnUse">
      <stop
         offset="0.41"
         stop-color="#0071b7"
         id="stop9" />
      <stop
         offset="1"
         stop-color="#0071b7"
         stop-opacity="0"
         id="stop11" />
    </radialGradient>
    <linearGradient
       id="linear-gradient"
       x1="15"
       y1="27.5"
       x2="15"
       y2="2.5"
       gradientUnits="userSpaceOnUse">
      <stop
         offset="0"
         stop-color="#cfcfcf"
         id="stop14" />
      <stop
         offset="1"
         stop-color="#fff"
         id="stop16" />
    </linearGradient>
    <linearGradient
       id="linear-gradient-2"
       x1="15"
       y1="26.25"
       x2="15"
       y2="3.75"
       gradientUnits="userSpaceOnUse">
      <stop
         offset="0"
         stop-color="#fff"
         id="stop19" />
      <stop
         offset="1"
         stop-color="#cfcfcf"
         id="stop21" />
    </linearGradient>
    <linearGradient
       id="linear-gradient-3"
       x1="15"
       y1="25.62"
       x2="15"
       y2="4.37"
       gradientUnits="userSpaceOnUse">
      <stop
         offset="0"
         stop-color="#a8a8a8"
         id="stop24" />
      <stop
         offset="1"
         stop-color="#fff"
         id="stop26" />
    </linearGradient>
  </defs>
  <title
     id="title31">Asset 1</title>
  <circle
     class="cls-1"
     cx="15"
     cy="15"
     r="15"
     id="circle33"
     style="fill:url(#radial-gradient)" />
  <circle
     class="cls-2"
     cx="15"
     cy="16.75"
     r="12.5"
     id="circle35"
     style="fill:url(#radial-gradient-2)" />
  <g
     id="g908">
    <circle
       class="cls-3"
       cx="15"
       cy="15"
       r="12.5"
       id="circle37"
       style="fill:url(#linear-gradient)" />
    <circle
       class="cls-4"
       cx="15"
       cy="15"
       r="11.25"
       id="circle39"
       style="fill:url(#linear-gradient-2)" />
    <circle
       class="cls-5"
       cx="15"
       cy="15"
       r="10.63"
       id="circle41"
       style="fill:url(#linear-gradient-3)" />
    <path
       class="cls-6"
       d="M 11.81,11.52 H 10 a 0.5,0.5 0 0 1 0,-1 h 1.77 a 0.5,0.5 0 0 1 0,1 z"
       id="path43"
       style="fill:#2c538e;fill-opacity:1" />
    <path
       class="cls-6"
       d="M 11.81,15.51 H 10 a 0.5,0.5 0 0 1 -0.5,-0.5 0.5,0.5 0 0 1 0.5,-0.5 h 1.77 a 0.5,0.5 0 0 1 0.5,0.5 0.5,0.5 0 0 1 -0.46,0.5 z"
       id="path45"
       style="fill:#2c538e;fill-opacity:1" />
    <path
       class="cls-6"
       d="M 11.81,19.51 H 10 a 0.5,0.5 0 0 1 -0.5,-0.5 0.5,0.5 0 0 1 0.5,-0.5 h 1.77 a 0.5,0.5 0 0 1 0.5,0.5 0.5,0.5 0 0 1 -0.46,0.5 z"
       id="path47"
       style="fill:#2c538e;fill-opacity:1" />
    <path
       class="cls-6"
       d="m 19.84,8.12 h -8.75 a 0.63,0.63 0 0 0 -0.63,0.63 v 12.5 a 0.62,0.62 0 0 0 0.63,0.62 h 8.75 a 0.62,0.62 0 0 0 0.62,-0.62 V 8.75 A 0.63,0.63 0 0 0 19.84,8.12 Z M 12,20 a 1,1 0 1 1 0,-2 1,1 0 0 1 0,2 z m 0,-4 a 1,1 0 1 1 1,-1 1,1 0 0 1 -1,1 z m 0,-4 a 1,1 0 1 1 1,-1 1,1 0 0 1 -1,1 z m 6.46,7.36 h -3.79 a 0.38,0.38 0 0 1 0,-0.75 h 3.82 a 0.38,0.38 0 0 1 0,0.75 z m 0,-2 H 14.67 A 0.37,0.37 0 0 1 14.3,17 0.38,0.38 0 0 1 14.67,16.62 h 3.82 a 0.37,0.37 0 0 1 0.37,0.38 0.36,0.36 0 0 1 -0.37,0.38 z m 0,-2 h -3.79 a 0.38,0.38 0 0 1 0,-0.75 h 3.82 a 0.38,0.38 0 0 1 0,0.75 z m 0,-2 h -3.79 a 0.38,0.38 0 0 1 0,-0.75 h 3.82 a 0.38,0.38 0 0 1 0,0.75 z m 0,-2 H 14.67 A 0.37,0.37 0 0 1 14.3,11 0.38,0.38 0 0 1 14.67,10.62 h 3.82 a 0.37,0.37 0 0 1 0.37,0.38 0.36,0.36 0 0 1 -0.37,0.39 z"
       id="path49"
       style="fill:#2c538e;fill-opacity:1" />
  </g>
</svg>
