<?xml version="1.0" encoding="utf-8"?>
<!-- Generator: Adobe Illustrator 25.2.0, SVG Export Plug-In . SVG Version: 6.00 Build 0)  -->
<svg version="1.1" id="Layer_1" xmlns="http://www.w3.org/2000/svg" xmlns:xlink="http://www.w3.org/1999/xlink" x="0px" y="0px"
	 viewBox="0 0 55.9 46.8" style="enable-background:new 0 0 55.9 46.8;" xml:space="preserve">
<style type="text/css">
	.st0{fill:#2C538E;}
</style>
<path class="st0" d="M49.5,4.5c-0.8,0-1.5,0.1-2.2,0.4c-3.9-3-8.7-4.8-14-4.8c-6.4,0-12.2,2.7-16.4,7c-1-0.2-2.1-0.4-3.2-0.4
	C6.1,6.6,0,12.7,0,20.3S6.1,33.9,13.6,34c4,6.8,11.3,11.4,19.7,11.4c1.9,0,3.7-0.2,5.4-0.7c1.6,1.3,3.7,2.1,5.9,2.1
	c2,0,3.9-0.7,5.3-1.8c2.6-1.7,4.3-4.6,4.3-8c0-1.4-0.3-2.8-0.9-4c1.6-3.1,2.6-6.7,2.6-10.5c0-2.7-0.5-5.3-1.4-7.8
	c0.9-1.1,1.4-2.5,1.4-4C55.9,7.4,53,4.5,49.5,4.5z M50.3,15.6c0.5,2.3,1.6,8.6-0.7,16.5c1.3,1.2,2.1,3,2.1,5c0,3.8-3.1,6.9-6.8,6.9
	c-3.7,0-6.8-3.1-6.8-6.9c0-1,0.2-1.9,0.6-2.8c-8.4-5.9-13.5-7.5-16-7.8c-1.9,2.5-4.8,4-8.2,4C8.7,30.4,4,25.8,4,20S8.6,9.5,14.4,9.5
	c5.7,0,10.4,4.7,10.4,10.5c0,0.2,0,0.4,0,0.5c8.3,3.8,13.1,8.9,15.3,11.6c1.2-1.2,2.9-2,4.8-2H45c0.8-1,3-4.7,3.7-14.6
	c-1.6-0.4-2.9-1.6-3.3-3.2c-0.7,0-2.2,0.2-4.8,1.5c0.1,0.3,0.2,0.7,0.2,1c0,1.3-1.1,2.4-2.4,2.4c-1.3,0-2.4-1.1-2.4-2.4
	s1.1-2.4,2.4-2.4c0.6,0,1.1,0.2,1.5,0.6c1-0.9,2.9-2,5.3-2.8c0.4-2.1,2.3-3.7,4.5-3.7c2.5,0,4.5,2,4.5,4.6
	C54.2,13.3,52.5,15.3,50.3,15.6z"/>
</svg>
