<?xml version="1.0" encoding="UTF-8" standalone="no"?>
<svg
   xmlns:dc="http://purl.org/dc/elements/1.1/"
   xmlns:cc="http://creativecommons.org/ns#"
   xmlns:rdf="http://www.w3.org/1999/02/22-rdf-syntax-ns#"
   xmlns:svg="http://www.w3.org/2000/svg"
   xmlns="http://www.w3.org/2000/svg"
   xmlns:sodipodi="http://sodipodi.sourceforge.net/DTD/sodipodi-0.dtd"
   xmlns:inkscape="http://www.inkscape.org/namespaces/inkscape"
   viewBox="0 0 30 30"
   version="1.1"
   id="svg51"
   sodipodi:docname="sonido.svg"
   inkscape:version="1.0.2 (e86c870879, 2021-01-15)">
  <metadata
     id="metadata55">
    <rdf:RDF>
      <cc:Work
         rdf:about="">
        <dc:format>image/svg+xml</dc:format>
        <dc:type
           rdf:resource="http://purl.org/dc/dcmitype/StillImage" />
      </cc:Work>
    </rdf:RDF>
  </metadata>
  <sodipodi:namedview
     pagecolor="#ffffff"
     bordercolor="#666666"
     borderopacity="1"
     objecttolerance="10"
     gridtolerance="10"
     guidetolerance="10"
     inkscape:pageopacity="0"
     inkscape:pageshadow="2"
     inkscape:window-width="1920"
     inkscape:window-height="1001"
     id="namedview53"
     showgrid="false"
     inkscape:zoom="27.666667"
     inkscape:cx="15"
     inkscape:cy="15"
     inkscape:window-x="-9"
     inkscape:window-y="-9"
     inkscape:window-maximized="1"
     inkscape:current-layer="svg51" />
  <defs
     id="defs29">
    <style
       id="style2">.cls-1{fill:url(#radial-gradient);}.cls-2{fill:url(#radial-gradient-2);}.cls-3{fill:url(#linear-gradient);}.cls-4{fill:url(#linear-gradient-2);}.cls-5{fill:url(#linear-gradient-3);}.cls-6{fill:#0071b7;}</style>
    <radialGradient
       id="radial-gradient"
       cx="15"
       cy="15"
       r="15"
       gradientUnits="userSpaceOnUse">
      <stop
         offset="0.41"
         id="stop4" />
      <stop
         offset="1"
         stop-opacity="0"
         id="stop6" />
    </radialGradient>
    <radialGradient
       id="radial-gradient-2"
       cx="15"
       cy="16.75"
       r="12.5"
       gradientUnits="userSpaceOnUse">
      <stop
         offset="0.41"
         stop-color="#0071b7"
         id="stop9" />
      <stop
         offset="1"
         stop-color="#0071b7"
         stop-opacity="0"
         id="stop11" />
    </radialGradient>
    <linearGradient
       id="linear-gradient"
       x1="15"
       y1="27.5"
       x2="15"
       y2="2.5"
       gradientUnits="userSpaceOnUse">
      <stop
         offset="0"
         stop-color="#cfcfcf"
         id="stop14" />
      <stop
         offset="1"
         stop-color="#fff"
         id="stop16" />
    </linearGradient>
    <linearGradient
       id="linear-gradient-2"
       x1="15"
       y1="26.25"
       x2="15"
       y2="3.75"
       gradientUnits="userSpaceOnUse">
      <stop
         offset="0"
         stop-color="#fff"
         id="stop19" />
      <stop
         offset="1"
         stop-color="#cfcfcf"
         id="stop21" />
    </linearGradient>
    <linearGradient
       id="linear-gradient-3"
       x1="15"
       y1="25.63"
       x2="15"
       y2="4.37"
       gradientUnits="userSpaceOnUse">
      <stop
         offset="0"
         stop-color="#a8a8a8"
         id="stop24" />
      <stop
         offset="1"
         stop-color="#fff"
         id="stop26" />
    </linearGradient>
  </defs>
  <title
     id="title31">Asset 2</title>
  <circle
     class="cls-1"
     cx="15"
     cy="15"
     r="15"
     id="circle33"
     style="fill:url(#radial-gradient)" />
  <circle
     class="cls-3"
     cx="15"
     cy="15"
     r="12.5"
     id="circle37"
     style="fill:url(#linear-gradient)" />
  <circle
     class="cls-2"
     cx="15"
     cy="16.75"
     r="12.5"
     id="circle35"
     style="fill:url(#radial-gradient-2)" />
  <circle
     class="cls-4"
     cx="15"
     cy="15"
     r="11.25"
     id="circle39"
     style="fill:url(#linear-gradient-2)" />
  <circle
     class="cls-5"
     cx="15"
     cy="15"
     r="10.63"
     id="circle41"
     style="fill:url(#linear-gradient-3)" />
  <path
     class="cls-6"
     d="M 15.25,9.77 A 0.63,0.63 0 0 0 14.77,9.98 L 11.2,12.26 H 8.4 a 0.68,0.68 0 0 0 -0.69,0.68 v 4.12 a 0.68,0.68 0 0 0 0.69,0.68 h 2.8 L 14.77,20 a 0.63,0.63 0 0 0 0.48,0.21 0.66,0.66 0 0 0 0.48,-0.21 0.62,0.62 0 0 0 0.2,-0.48 V 10.46 A 0.62,0.62 0 0 0 15.73,9.98 0.66,0.66 0 0 0 15.25,9.77 Z"
     id="path43"
     style="fill:#2c538e;fill-opacity:1" />
  <path
     class="cls-6"
     d="m 19.09,16.52 a 2.74,2.74 0 0 0 0,-3 2.49,2.49 0 0 0 -1.2,-1 0.68,0.68 0 0 0 -0.27,-0.05 0.67,0.67 0 0 0 -0.48,0.2 0.63,0.63 0 0 0 -0.2,0.49 0.62,0.62 0 0 0 0.12,0.38 1.3,1.3 0 0 0 0.31,0.26 l 0.37,0.25 a 1.2,1.2 0 0 1 0.31,0.38 1.5,1.5 0 0 1 0,1.22 1.2,1.2 0 0 1 -0.31,0.38 l -0.37,0.25 a 1.3,1.3 0 0 0 -0.31,0.26 0.68,0.68 0 0 0 0.08,0.87 0.67,0.67 0 0 0 0.48,0.2 0.68,0.68 0 0 0 0.27,-0.05 2.54,2.54 0 0 0 1.2,-1.04 z"
     id="path45"
     style="fill:#2c538e;fill-opacity:1" />
  <path
     class="cls-6"
     d="m 19,10 a 0.71,0.71 0 0 0 -0.28,-0.06 0.66,0.66 0 0 0 -0.48,0.21 0.62,0.62 0 0 0 -0.2,0.48 0.68,0.68 0 0 0 0.41,0.63 7.58,7.58 0 0 1 0.82,0.47 4.11,4.11 0 0 1 0,6.62 6.68,6.68 0 0 1 -0.82,0.47 0.68,0.68 0 0 0 -0.41,0.63 0.62,0.62 0 0 0 0.2,0.48 A 0.66,0.66 0 0 0 19,20 5.3,5.3 0 0 0 21.41,18 5.41,5.41 0 0 0 22.32,15 5.36,5.36 0 0 0 21.41,12 5.26,5.26 0 0 0 19,10 Z"
     id="path47"
     style="fill:#2c538e;fill-opacity:1" />
</svg>
