<svg xmlns="http://www.w3.org/2000/svg" viewBox="0 0 307.6 64"><defs><style>.cls-1{fill:#fff;}</style></defs><title>Asset 1</title><g id="Layer_2" data-name="Layer 2"><g id="Layer_1-2" data-name="Layer 1"><path class="cls-1" d="M94,26.1a11.88,11.88,0,0,1,6-1.5,11.67,11.67,0,0,1,8.7,3.8l3.9-3.7a14.07,14.07,0,0,0-5.6-4,19,19,0,0,0-7.3-1.4,17.8,17.8,0,0,0-8.9,2.2,16,16,0,0,0-6.2,5.9A16.5,16.5,0,0,0,82.3,36a16.69,16.69,0,0,0,2.2,8.6,16,16,0,0,0,6.2,5.9,18.62,18.62,0,0,0,8.9,2.2,19,19,0,0,0,7.3-1.4,15.12,15.12,0,0,0,5.6-4l-3.9-3.7a11,11,0,0,1-8.7,3.8,12.14,12.14,0,0,1-6-1.5,10.52,10.52,0,0,1-4.1-4A11.5,11.5,0,0,1,88.3,36a11.77,11.77,0,0,1,1.5-5.9A11.47,11.47,0,0,1,94,26.1Z"/><rect class="cls-1" x="115.4" y="17.9" width="5.8" height="34.3"/><path class="cls-1" d="M144.4,28.8a15.25,15.25,0,0,0-13.6,0,12,12,0,0,0-4.7,4.5,13.28,13.28,0,0,0,0,13,12,12,0,0,0,4.7,4.5,15.25,15.25,0,0,0,13.6,0,12,12,0,0,0,4.7-4.5,13.28,13.28,0,0,0,0-13A12,12,0,0,0,144.4,28.8Zm-1.5,16.6a7.74,7.74,0,0,1-10.6,0,7.62,7.62,0,0,1-2.1-5.6,7.62,7.62,0,0,1,2.1-5.6,7.74,7.74,0,0,1,10.6,0,7.62,7.62,0,0,1,2.1,5.6A7.62,7.62,0,0,1,142.9,45.4Z"/><path class="cls-1" d="M172.2,40a7.59,7.59,0,0,1-1.8,5.5,6.41,6.41,0,0,1-4.9,1.9,5.44,5.44,0,0,1-4.3-1.6,7.29,7.29,0,0,1-1.5-5V27.5h-5.8V41.6c0,3.6.9,6.3,2.8,8.2a10.93,10.93,0,0,0,7.8,2.8,11.3,11.3,0,0,0,4.5-.9,10,10,0,0,0,3.5-2.6v3.1H178V27.5h-5.8Z"/><path class="cls-1" d="M201.6,30.5a9.76,9.76,0,0,0-3.5-2.5,11.24,11.24,0,0,0-4.5-.8,12.42,12.42,0,0,0-6.4,1.6,11.2,11.2,0,0,0-4.5,4.4,12.91,12.91,0,0,0-1.6,6.6,12.91,12.91,0,0,0,1.6,6.6,12.14,12.14,0,0,0,4.5,4.5,13.49,13.49,0,0,0,6.4,1.6,12.29,12.29,0,0,0,4.7-.9,9.19,9.19,0,0,0,3.5-2.6v3.2h5.6V17.9h-5.8Zm-.8,13.4a6.18,6.18,0,0,1-2.6,2.7,7.79,7.79,0,0,1-3.7.9,7.51,7.51,0,0,1-3.7-.9,6.18,6.18,0,0,1-2.6-2.7,8.87,8.87,0,0,1-1-4.1,8,8,0,0,1,1-4.1,6.18,6.18,0,0,1,2.6-2.7,7.79,7.79,0,0,1,3.7-.9,7.51,7.51,0,0,1,3.7.9,6.18,6.18,0,0,1,2.6,2.7,8.87,8.87,0,0,1,1,4.1A10.31,10.31,0,0,1,200.8,43.9Z"/><polygon class="cls-1" points="216.9 19.8 214.6 19.8 214.6 52.2 235.6 52.2 235.6 50.1 216.9 50.1 216.9 19.8"/><path class="cls-1" d="M246.7,27.9a15.53,15.53,0,0,0-5.3.9,13.62,13.62,0,0,0-4.4,2.5l1.2,1.7a11.36,11.36,0,0,1,3.7-2.2,12.06,12.06,0,0,1,4.6-.8,7.24,7.24,0,0,1,5.3,1.8,6.9,6.9,0,0,1,1.8,5.1v1.9h-8.3c-3.1,0-5.4.6-6.9,1.9a6.12,6.12,0,0,0-2.2,4.9,6.27,6.27,0,0,0,2.3,5,9.77,9.77,0,0,0,6.4,1.9,10.92,10.92,0,0,0,5.3-1.2,8.32,8.32,0,0,0,3.4-3.3v4.3h2.2V37c0-3-.8-5.2-2.4-6.7C252,28.6,249.7,27.9,246.7,27.9Zm7,17.2a8.08,8.08,0,0,1-3.2,4,9.25,9.25,0,0,1-5.1,1.4,8.25,8.25,0,0,1-5-1.4,4.46,4.46,0,0,1-1.8-3.7,4.38,4.38,0,0,1,1.6-3.6c1.1-.9,2.8-1.3,5.2-1.3h8.2v4.6Z"/><path class="cls-1" d="M281.5,29.4a12.6,12.6,0,0,0-6.1-1.6,11.4,11.4,0,0,0-5.8,1.5,10.13,10.13,0,0,0-4,4.2V17.8h-2.3V52.1h2.2V46.4a10.42,10.42,0,0,0,4,4.3,11.56,11.56,0,0,0,5.9,1.6,11.67,11.67,0,0,0,10.4-6,13.39,13.39,0,0,0,1.6-6.3,11.56,11.56,0,0,0-5.9-10.6Zm2.2,16A10,10,0,0,1,270.2,49a10.06,10.06,0,0,1-3.5-3.6,11.23,11.23,0,0,1-1.3-5.3,10.42,10.42,0,0,1,1.3-5.3,10,10,0,0,1,13.5-3.6,10.06,10.06,0,0,1,3.5,3.6,11.23,11.23,0,0,1,1.3,5.3A10.17,10.17,0,0,1,283.7,45.4Z"/><path class="cls-1" d="M306.6,42.2a7,7,0,0,0-2.9-1.9,45.3,45.3,0,0,0-4.6-1.1c-1.7-.3-3-.7-4-.9a7,7,0,0,1-2.4-1.3,3.38,3.38,0,0,1-1-2.5,3.9,3.9,0,0,1,1.7-3.3,8.72,8.72,0,0,1,5.1-1.2,13.2,13.2,0,0,1,3.9.6,11.86,11.86,0,0,1,3.4,1.6l1.1-1.9a11.53,11.53,0,0,0-3.7-1.7,17.59,17.59,0,0,0-4.6-.6c-2.9,0-5.2.6-6.8,1.9a5.78,5.78,0,0,0-2.4,4.7,5.31,5.31,0,0,0,1.2,3.7,6.72,6.72,0,0,0,3,1.9,28.41,28.41,0,0,0,4.6,1.1,31,31,0,0,1,3.8.9,5.76,5.76,0,0,1,2.3,1.3,3.24,3.24,0,0,1,.9,2.4,3.9,3.9,0,0,1-1.7,3.3,9.82,9.82,0,0,1-5.4,1.2,16.22,16.22,0,0,1-4.9-.8,11.42,11.42,0,0,1-3.8-2.1l-1.1,1.9a12.16,12.16,0,0,0,4.1,2.2,17.3,17.3,0,0,0,5.6.9c3,0,5.4-.6,7-1.8a5.79,5.79,0,0,0,2.5-4.8A4.12,4.12,0,0,0,306.6,42.2Z"/><path class="cls-1" d="M67.6,6.1a9.43,9.43,0,0,0-3,.5A31.06,31.06,0,0,0,23.1,9.5,21.18,21.18,0,0,0,18.7,9a18.7,18.7,0,0,0-.1,37.4A31.1,31.1,0,0,0,45.5,62a29.42,29.42,0,0,0,7.4-.9,12.65,12.65,0,0,0,8,2.9,12.28,12.28,0,0,0,7.3-2.4,13,13,0,0,0,5.9-10.9,12.21,12.21,0,0,0-1.2-5.4,30.78,30.78,0,0,0,1.6-24.9A8.66,8.66,0,0,0,76.4,15,8.83,8.83,0,0,0,67.6,6.1Zm1.1,15.2a45.07,45.07,0,0,1-1,22.5,9.28,9.28,0,0,1,2.9,6.8,9.3,9.3,0,1,1-18.6,0,10,10,0,0,1,.8-3.8C41.3,38.7,34.3,36.6,30.9,36.1a13.93,13.93,0,0,1-11.2,5.5A14.3,14.3,0,1,1,33.9,27.3V28A58,58,0,0,1,54.8,43.9a9.3,9.3,0,0,1,6.6-2.8h.1c1.1-1.4,4.1-6.4,5.1-20a6.09,6.09,0,0,1-4.5-4.4c-1,0-3,.3-6.6,2a3.19,3.19,0,0,1,.3,1.4,3.3,3.3,0,1,1-3.3-3.3,3.23,3.23,0,0,1,2.1.8,20.24,20.24,0,0,1,7.3-3.8,6.21,6.21,0,0,1,12.3,1.3A6.44,6.44,0,0,1,68.7,21.3Z"/></g></g></svg>