<?xml version="1.0" encoding="utf-8"?>
<!-- Generator: Adobe Illustrator 25.2.0, SVG Export Plug-In . SVG Version: 6.00 Build 0)  -->
<svg version="1.1" id="Layer_1" xmlns="http://www.w3.org/2000/svg" xmlns:xlink="http://www.w3.org/1999/xlink" x="0px" y="0px"
	 viewBox="0 0 297.8 46" style="enable-background:new 0 0 297.8 46;" xml:space="preserve">
<style type="text/css">
	.st0{fill:#2C538E;}
</style>
<g>
	<path class="st0" d="M15.5,10.8c2.4-1.3,4.9-2,7.9-2c4.5,0,8.3,1.7,11.5,5L40.1,9c-2-2.4-4.5-4.1-7.4-5.3c-2.9-1.2-6.1-1.9-9.6-1.9
		c-4.4,0-8.2,0.9-11.8,2.9S5,9.3,3,12.6s-3,7.1-3,11.4s0.9,7.9,2.9,11.4c2,3.3,4.8,5.9,8.2,7.8S18.5,46,22.9,46
		c3.6,0,6.7-0.7,9.6-1.9c2.9-1.2,5.4-3,7.4-5.3L34.8,34c-3,3.4-6.9,5-11.5,5c-2.9,0-5.6-0.7-7.9-2s-4.1-3-5.4-5.3
		c-1.3-2.2-2-4.9-2-7.8s0.7-5.4,2-7.8C11.4,14,13.2,12.2,15.5,10.8z"/>
	<rect x="43.8" class="st0" width="7.7" height="45.3"/>
	<path class="st0" d="M82.1,14.5c-2.6-1.5-5.7-2.1-9-2.1s-6.3,0.7-9,2.1c-2.6,1.5-4.8,3.4-6.2,5.9s-2.2,5.4-2.2,8.6s0.8,6.1,2.2,8.6
		c1.5,2.5,3.6,4.5,6.2,5.9c2.6,1.5,5.7,2.1,9,2.1s6.3-0.7,9-2.1s4.8-3.4,6.2-5.9c1.5-2.5,2.2-5.4,2.2-8.6s-0.8-6.1-2.2-8.6
		S84.7,16,82.1,14.5z M80.1,36.5c-1.9,1.9-4.1,2.8-7,2.8s-5.2-0.9-7-2.8c-1.9-1.9-2.8-4.4-2.8-7.4s0.9-5.6,2.8-7.4
		c1.9-1.9,4.1-2.8,7-2.8s5.2,0.9,7,2.8c1.9,1.9,2.8,4.4,2.8,7.4S82,34.6,80.1,36.5z"/>
	<path class="st0" d="M118.8,29.3c0,3.2-0.8,5.7-2.4,7.3c-1.6,1.7-3.8,2.5-6.5,2.5c-2.5,0-4.4-0.7-5.7-2.1c-1.3-1.5-2-3.7-2-6.6
		V12.8h-7.7v18.6c0,4.8,1.2,8.3,3.7,10.8c2.5,2.4,5.9,3.7,10.3,3.7c2.1,0,4.1-0.4,5.9-1.2c1.9-0.8,3.3-2,4.6-3.4v4.1h7.3V12.8h-7.7
		V29.3z"/>
	<path class="st0" d="M157.7,16.8c-1.3-1.5-2.8-2.5-4.6-3.3c-1.9-0.8-3.8-1.1-5.9-1.1c-3.2,0-5.9,0.7-8.5,2.1
		c-2.5,1.3-4.5,3.3-5.9,5.8c-1.5,2.5-2.1,5.4-2.1,8.7s0.7,6.2,2.1,8.7c1.5,2.5,3.4,4.5,5.9,5.9c2.5,1.3,5.3,2.1,8.5,2.1
		c2.2,0,4.2-0.4,6.2-1.2c1.9-0.8,3.4-2,4.6-3.4v4.2h7.4V0h-7.7V16.8z M156.6,34.5c-0.8,1.6-2,2.8-3.4,3.6c-1.5,0.8-3.2,1.2-4.9,1.2
		c-1.9,0-3.4-0.4-4.9-1.2c-1.5-0.8-2.6-2-3.4-3.6c-0.8-1.6-1.3-3.3-1.3-5.4c0-2,0.4-3.8,1.3-5.4c0.8-1.6,2-2.8,3.4-3.6
		c1.5-0.8,3.2-1.2,4.9-1.2c1.9,0,3.4,0.4,4.9,1.2c1.5,0.8,2.6,2,3.4,3.6c0.8,1.6,1.3,3.3,1.3,5.4C157.8,31.2,157.4,32.9,156.6,34.5z
		"/>
	<polygon class="st0" points="177.9,2.6 174.9,2.6 174.9,45.5 202.6,45.5 202.6,42.6 177.9,42.6 	"/>
	<path class="st0" d="M217.3,13.2c-2.5,0-4.8,0.4-7,1.2c-2.2,0.8-4.1,1.9-5.8,3.3l1.6,2.2c1.3-1.2,3-2.2,4.9-2.9
		c2-0.8,4-1.1,6.1-1.1c3,0,5.4,0.8,7,2.4c1.6,1.6,2.4,3.8,2.4,6.7v2.5h-11c-4.1,0-7.1,0.8-9.1,2.5c-2,1.7-2.9,3.8-2.9,6.5
		c0,2.8,1.1,4.9,3,6.6c2.1,1.7,4.9,2.5,8.5,2.5c2.8,0,5-0.5,7-1.6c2-1.1,3.4-2.5,4.5-4.4v5.7h2.9V25.2c0-4-1.1-6.9-3.2-8.9
		C224.3,14.3,221.3,13.2,217.3,13.2z M226.6,36c-0.9,2.4-2.4,4.1-4.2,5.3c-1.9,1.2-4.1,1.9-6.7,1.9c-2.8,0-5-0.7-6.6-1.9
		c-1.6-1.2-2.4-2.9-2.4-4.9s0.7-3.6,2.1-4.8c1.5-1.2,3.7-1.7,6.9-1.7h10.8L226.6,36L226.6,36z"/>
	<path class="st0" d="M263.3,15.3c-2.4-1.3-5.2-2.1-8.1-2.1c-2.8,0-5.4,0.7-7.7,2c-2.2,1.3-4.1,3.2-5.3,5.6V0h-3v45.3h2.9v-7.5
		c1.3,2.5,3,4.4,5.3,5.7s4.9,2.1,7.8,2.1c3,0,5.7-0.7,8.1-2.1c2.4-1.3,4.2-3.3,5.7-5.8c1.3-2.5,2.1-5.3,2.1-8.3
		c0-3.2-0.7-5.9-2.1-8.5C267.5,18.6,265.7,16.7,263.3,15.3z M266.2,36.5c-1.1,2-2.6,3.6-4.6,4.8c-2,1.2-4.1,1.7-6.6,1.7
		c-2.5,0-4.6-0.5-6.6-1.7c-2-1.2-3.4-2.8-4.6-4.8c-1.1-2-1.7-4.4-1.7-7s0.5-4.9,1.7-7c1.1-2,2.6-3.6,4.6-4.8s4.1-1.7,6.6-1.7
		c2.5,0,4.6,0.5,6.6,1.7s3.4,2.8,4.6,4.8c1.1,2,1.7,4.4,1.7,7C267.9,32.1,267.4,34.4,266.2,36.5z"/>
	<path class="st0" d="M296.5,32.3c-1.1-1.2-2.4-2-3.8-2.5c-1.6-0.5-3.6-0.9-6.1-1.5c-2.2-0.4-4-0.9-5.3-1.2
		c-1.2-0.4-2.2-0.9-3.2-1.7c-0.8-0.8-1.3-1.9-1.3-3.3c0-1.9,0.8-3.3,2.2-4.4c1.5-1.1,3.7-1.6,6.7-1.6c1.7,0,3.4,0.3,5.2,0.8
		c1.7,0.5,3.2,1.2,4.5,2.1l1.5-2.5c-1.3-0.9-2.9-1.7-4.9-2.2c-2-0.5-4-0.8-6.1-0.8c-3.8,0-6.9,0.8-9,2.5s-3.2,3.7-3.2,6.2
		c0,2.1,0.5,3.7,1.6,4.9c1.1,1.2,2.4,2,4,2.5c1.6,0.5,3.6,1.1,6.1,1.5c2.1,0.4,3.8,0.8,5,1.2c1.2,0.4,2.2,0.9,3,1.7
		c0.8,0.8,1.2,1.9,1.2,3.2c0,1.9-0.8,3.3-2.2,4.4c-1.6,1.1-4,1.6-7.1,1.6c-2.2,0-4.4-0.4-6.5-1.1c-2.1-0.8-3.7-1.6-5-2.8l-1.5,2.5
		c1.3,1.2,3.2,2.1,5.4,2.9c2.4,0.8,4.8,1.2,7.4,1.2c4,0,7.1-0.8,9.3-2.4c2.1-1.6,3.3-3.7,3.3-6.3C298.1,34.9,297.5,33.3,296.5,32.3z
		"/>
</g>
</svg>
